<svg width="420" height="418" viewBox="0 0 420 418" fill="none" xmlns="http://www.w3.org/2000/svg">
<path d="M135.017 417.164C123.687 416.044 103.127 410.874 92.6365 406.514C71.0965 397.554 45.1265 377.434 31.2865 358.984C25.7465 351.604 17.1665 337.244 15.0465 331.814C14.2965 329.894 13.2865 327.794 12.8065 327.164C12.3265 326.524 11.5365 324.724 11.0465 323.164C10.5665 321.594 9.22652 317.844 8.07652 314.814C4.81652 306.234 2.15651 293.834 1.03651 282.074C-0.373491 267.214 -0.333472 130.864 1.08653 127.134C1.66653 125.584 3.13653 123.254 4.33653 121.964C9.16653 116.784 8.13652 116.874 63.6665 116.784L115.517 116.704L116.017 196.514L116.517 276.314L117.566 284C120.846 290.54 120.616 291.81 126.566 296.5C134.526 302.78 138.507 301.264 163.017 301.814L185.517 302.314V354.394V406.474L182.707 410.154C178.257 415.994 174.817 416.914 156.017 417.284C146.937 417.464 137.497 417.404 135.017 417.164ZM187.017 250.434C187.017 197.074 187.037 196.824 191.737 191.184C195.717 186.414 196.307 186.344 237.517 185.814L269.84 185.399C274.236 185.343 278.566 184.313 282.517 182.384C290.347 178.554 297.367 171.824 300.777 164.884C303.147 160.064 303.517 158.104 303.507 150.314C303.497 142.544 303.127 140.554 300.757 135.724C297.347 128.754 291.507 122.884 284.007 118.884C280.218 116.868 275.992 115.814 271.701 115.814H198.177H118.107L117.507 112.564C117.177 110.774 117.047 87.0436 117.217 59.8136C117.447 22.2336 117.817 9.78361 118.777 8.10361C119.477 6.89361 121.687 4.64361 123.707 3.10361L127.357 0.313601L202.297 0.0436119C246.387 -0.116388 280.796 0.173603 285.876 0.753603C322.266 4.8636 352.957 20.2036 378.707 47.1536C388.897 57.8236 395.516 67.2336 402.736 81.3336C407.846 91.3136 408.927 93.8936 412.727 105.314C418.637 123.044 421.036 145.704 419.066 165.154C415.356 201.694 398.147 236.324 371.337 261.174C355.307 276.044 335.806 287.374 314.376 294.284C296.066 300.184 288.427 300.814 235.397 300.814H187.017V250.434Z" fill="url(#paint0_linear_2856_1158)"/>
<defs>
<linearGradient id="paint0_linear_2856_1158" x1="94" y1="6.5" x2="232.5" y2="443.5" gradientUnits="userSpaceOnUse">
<stop stop-color="#F8C8B4"/>
<stop offset="0.355769" stop-color="#D767AE"/>
<stop offset="0.490385" stop-color="#B469C4"/>
<stop offset="0.625" stop-color="#916ADA"/>
<stop offset="0.860577" stop-color="#958EF6"/>
</linearGradient>
</defs>
</svg>
